<?xml version="1.0" encoding="UTF-8" standalone="no"?>
<svg
   version="1.0"
   width="193.74493pt"
   height="110.1348pt"
   viewBox="0 0 193.74495 110.13481"
   preserveAspectRatio="xMidYMid meet"
   id="svg34"
   sodipodi:docname="Logo-without-bg.svg"
   inkscape:label="Logo"
   inkscape:version="1.1.2 (0a00cf5339, 2022-02-04)"
   xmlns:inkscape="http://www.inkscape.org/namespaces/inkscape"
   xmlns:sodipodi="http://sodipodi.sourceforge.net/DTD/sodipodi-0.dtd"
   xmlns="http://www.w3.org/2000/svg"
   xmlns:svg="http://www.w3.org/2000/svg">
  <defs
     id="defs38" />
  <sodipodi:namedview
     id="namedview36"
     pagecolor="#ffffff"
     bordercolor="#666666"
     borderopacity="1.0"
     inkscape:pageshadow="2"
     inkscape:pageopacity="0.0"
     inkscape:pagecheckerboard="0"
     inkscape:document-units="pt"
     showgrid="false"
     inkscape:zoom="4.0881919"
     inkscape:cx="149.08791"
     inkscape:cy="103.46872"
     inkscape:window-width="1920"
     inkscape:window-height="1121"
     inkscape:window-x="0"
     inkscape:window-y="0"
     inkscape:window-maximized="1"
     inkscape:current-layer="layer3"
     inkscape:snap-grids="true" />
  <g
     transform="matrix(0.1,0,0,-0.1,-123.17861,259.0598)"
     fill="#000000"
     stroke="none"
     id="Drinkit"
     inkscape:label="Full-Logo"
     inkscape:groupmode="layer">
    <g
       inkscape:groupmode="layer"
       id="layer1"
       inkscape:label="Cercle"
       style="display:none">
      <ellipse
         style="display:inline;opacity:1;fill:#917c6f;stroke-width:5.07213"
         id="path872"
         cx="2198.1628"
         cy="-2060.7578"
         transform="scale(1,-1)"
         rx="864.52252"
         ry="772.87622"
         inkscape:label="path-cercle-filled"
         sodipodi:insensitive="true" />
    </g>
    <g
       inkscape:groupmode="layer"
       id="layer4"
       inkscape:label="Rectangle"
       style="display:none">
      <rect
         style="display:inline;opacity:1;fill:#917c6f;fill-opacity:1;stroke-width:7.5"
         id="rect2046"
         width="1358.6003"
         height="1207.5361"
         x="1521.4421"
         y="-2657.4473"
         transform="scale(1,-1)"
         sodipodi:insensitive="true" />
    </g>
    <g
       inkscape:groupmode="layer"
       id="layer2"
       inkscape:label="Beer-in-the-air"
       sodipodi:insensitive="true">
      <path
         d="m 2204,2576 c -13,-10 -25,-11 -35,-5 -25,16 -59,10 -84,-15 -13,-13 -35,-26 -49,-30 -16,-4 -33,-20 -44,-44 -18,-34 -19,-51 -11,-207 4,-93 15,-199 23,-235 27,-118 40,-292 27,-370 -14,-89 -14,-153 1,-168 17,-17 319,-17 336,0 15,15 15,79 1,169 -14,79 -1,236 30,391 12,58 20,149 23,239 3,130 1,149 -17,182 -11,21 -28,40 -37,43 -10,3 -31,18 -47,35 -33,33 -82,39 -117,15 z m 101,-31 c 14,-13 25,-29 25,-35 0,-5 5,-10 12,-10 19,0 48,-31 48,-52 0,-10 -7,-18 -15,-18 -24,0 -17,-18 8,-22 21,-3 22,-8 25,-96 2,-69 -4,-124 -22,-215 -38,-183 -50,-331 -36,-435 6,-47 13,-89 16,-93 2,-4 -3,-15 -12,-23 -13,-13 -41,-16 -154,-16 -113,0 -141,3 -154,16 -9,8 -14,19 -12,23 3,4 10,46 16,93 14,104 2,252 -36,435 -18,91 -24,146 -22,215 l 3,93 133,3 c 173,3 176,22 3,22 -122,0 -129,1 -124,19 6,22 50,67 58,59 3,-3 20,8 36,23 29,27 57,40 45,21 -2,-4 4,-13 14,-19 14,-10 24,-7 51,13 42,30 64,30 94,-1 z"
         id="path-beer-glass"
         style="display:inline;opacity:1;fill:#ffdd55"
         sodipodi:insensitive="true" />
      <g
         id="path-wings"
         style="display:inline;opacity:1;fill:#ffdd55"
         sodipodi:insensitive="true"
         transform="matrix(0.8302113,0,0,1,373.66642,0)">
        <path
           d="m 1685,2279 c -230,-64 -311,-80 -410,-80 -75,0 -117,5 -168,21 -38,12 -71,20 -72,18 -11,-10 46,-86 85,-115 51,-36 56,-41 106,-100 21,-25 50,-47 72,-54 20,-6 61,-23 90,-36 64,-31 166,-41 250,-24 49,9 70,9 120,-4 49,-13 73,-14 117,-6 61,11 115,36 115,52 0,6 -3,9 -7,7 -87,-45 -159,-57 -217,-38 -32,10 -50,30 -28,30 19,0 82,76 98,117 25,64 11,63 -21,-2 -46,-95 -140,-147 -264,-149 -57,0 -151,21 -151,34 0,4 22,10 49,13 53,6 211,73 211,89 0,6 -6,8 -12,5 -7,-3 -51,-23 -98,-43 -73,-33 -96,-38 -160,-39 -82,0 -132,21 -164,70 l -17,25 68,-6 c 47,-4 89,-1 136,10 80,19 167,54 167,68 0,6 -7,7 -17,2 -200,-88 -345,-84 -451,11 -50,46 -53,63 -6,43 19,-8 79,-12 169,-11 146,0 140,-1 390,68 55,15 124,28 153,29 47,1 57,-2 78,-27 27,-31 31,-88 13,-166 -14,-60 15,-90 61,-61 21,13 5,23 -19,11 -30,-16 -35,1 -21,75 15,77 7,128 -25,160 -21,20 -34,24 -87,23 -35,0 -94,-9 -133,-20 z"
           id="path-wing-left"
           style="fill:#ffdd55" />
        <path
           d="m 2495,2276 c -32,-32 -40,-83 -25,-160 14,-74 9,-91 -21,-75 -24,12 -40,2 -19,-11 46,-29 75,1 61,61 -18,78 -14,135 13,166 21,25 31,28 78,27 29,-1 98,-14 153,-29 250,-69 244,-68 390,-68 90,-1 150,3 169,11 47,20 44,3 -6,-43 -106,-95 -251,-99 -450,-11 -11,5 -18,4 -18,-2 0,-14 87,-49 167,-68 47,-11 89,-14 136,-10 l 68,6 -17,-25 c -32,-49 -82,-70 -164,-70 -64,1 -87,6 -160,39 -47,20 -91,40 -97,43 -7,3 -13,1 -13,-5 0,-16 158,-83 211,-89 27,-3 49,-9 49,-13 0,-13 -94,-34 -151,-34 -124,2 -218,54 -264,149 -32,65 -46,66 -21,2 16,-41 79,-117 98,-117 22,0 4,-20 -28,-30 -58,-19 -130,-7 -216,38 -5,2 -8,-1 -8,-7 0,-16 54,-41 115,-52 44,-8 68,-7 117,6 50,13 71,13 120,4 84,-17 186,-7 250,24 29,13 70,30 90,36 34,11 108,79 108,100 0,4 22,22 50,39 44,27 118,118 106,129 -2,3 -35,-5 -73,-17 -51,-16 -93,-21 -168,-21 -99,0 -163,13 -414,81 -41,11 -101,20 -133,20 -49,0 -63,-4 -83,-24 z"
           id="path-wing-right"
           style="fill:#ffdd55" />
      </g>
    </g>
    <g
       inkscape:groupmode="layer"
       id="layer3"
       inkscape:label="Coin">
      <path
         class="cls-1"
         d="m 2197.569,2315.897 a 143.35574,125.3427 0 1 0 -143.3558,-125.3427 143.35574,125.3427 0 0 0 143.3558,125.3427 z m 20.9993,-102.6978 a 14.83956,12.974928 0 0 1 -5.6931,9.5068 16.752835,14.647796 0 0 1 -5.2733,2.3461 l -0.3499,-23.5629 3.3366,-0.6529 a 80.847599,70.688875 0 0 0 16.9628,-4.8554 47.318594,41.372883 0 0 0 12.3896,-7.2626 31.849054,27.847133 0 0 0 7.6065,-9.6497 38.032204,33.253353 0 0 0 2.6832,-12.2404 36.67891,32.070105 0 0 0 -6.2065,-18.3608 38.545522,33.702171 0 0 0 -17.6161,-11.7713 65.774712,57.509939 0 0 0 -20.1594,-3.8354 l -0.1634,-11.4652 h -16.3795 l 0.1634,11.5673 a 67.664657,59.162407 0 0 0 -19.3661,3.9169 39.665489,34.68141 0 0 0 -18.7828,12.9137 44.798669,39.169594 0 0 0 -6.8831,21.9513 h 29.9824 a 19.52942,17.075495 0 0 1 3.3132,-9.0988 18.176126,15.892247 0 0 1 8.1898,-5.5285 25.36258,22.175702 0 0 1 3.8965,-1.1017 l 0.35,25.0114 -6.2998,1.2649 a 59.054912,51.6345 0 0 0 -26.4825,10.9348 29.539123,25.82745 0 0 0 -9.6131,20.4008 34.835632,30.458439 0 0 0 6.4632,18.3608 42.76873,37.394721 0 0 0 18.0128,12.2405 61.411509,53.694984 0 0 0 18.8994,4.0801 l 0.1633,11.4041 h 16.4962 l -0.1633,-11.5673 a 56.604985,49.492413 0 0 0 16.9862,-4.0801 40.365467,35.293436 0 0 0 17.2428,-12.4649 37.985539,33.212551 0 0 0 6.2764,-18.5852 z m -27.3225,12.2405 a 17.779472,15.545433 0 0 1 -2.5199,-0.6732 13.509599,11.81208 0 0 1 -6.1832,-3.8353 10.896343,9.5271875 0 0 1 -2.0999,-5.4879 9.3330561,8.1603323 0 0 1 1.1899,-4.5085 12.249636,10.710436 0 0 1 3.8033,-3.3866 25.26925,22.094099 0 0 1 5.3898,-2.3665 l 0.3033,20.2172 z m 15.4229,-69.4852 a 17.662809,15.443428 0 0 1 2.5899,0.714 15.469541,13.52575 0 0 1 6.8598,4.0802 11.292998,9.8740014 0 0 1 2.4499,6.1202 9.5197168,8.3235383 0 0 1 -2.3333,5.4879 17.59281,15.382226 0 0 1 -6.7897,4.0802 c -0.77,0.2856 -1.61,0.5712 -2.4966,0.8568 l -0.3267,-21.2577 z m -9.0997,138.5624 a 118.99646,104.04423 0 1 0 -118.9966,-104.0442 118.99646,104.04423 0 0 0 118.9966,104.0442 z"
         id="path8"
         style="display:inline;fill:#ffdd55;fill-opacity:1;fill-rule:evenodd;stroke-width:2.18175" />
    </g>
  </g>
</svg>
